<mxfile host="app.diagrams.net" modified="2023-02-05T18:46:15.993Z" agent="5.0 (Windows NT 10.0; Win64; x64) AppleWebKit/537.36 (KHTML, like Gecko) Chrome/109.0.0.0 Safari/537.36" etag="k9YvhsYImKX8Gin7jJiX" version="20.8.5" type="github">
  <diagram id="Awjluz92TWdaUSS9b63R" name="Page-1">
    <mxGraphModel dx="2074" dy="1124" grid="1" gridSize="10" guides="1" tooltips="1" connect="1" arrows="1" fold="1" page="1" pageScale="1" pageWidth="850" pageHeight="1100" math="0" shadow="0">
      <root>
        <mxCell id="0" />
        <mxCell id="1" parent="0" />
        <mxCell id="dlZINARXgmisN3FDSX2H-13" value="website&lt;br&gt;homepage&amp;nbsp;&lt;br&gt;crytoprices list" style="rounded=0;whiteSpace=wrap;html=1;" parent="1" vertex="1">
          <mxGeometry x="120" y="170" width="690" height="360" as="geometry" />
        </mxCell>
        <mxCell id="bY295j3D-waqxuCJMIXR-1" value="" style="whiteSpace=wrap;html=1;aspect=fixed;" parent="1" vertex="1">
          <mxGeometry x="185" y="550" width="480" height="480" as="geometry" />
        </mxCell>
        <mxCell id="bY295j3D-waqxuCJMIXR-2" value="Mongo database" style="rounded=0;whiteSpace=wrap;html=1;" parent="1" vertex="1">
          <mxGeometry x="285" y="570" width="280" height="60" as="geometry" />
        </mxCell>
        <mxCell id="bY295j3D-waqxuCJMIXR-3" value="coin data api&lt;br&gt;prices data" style="rounded=0;whiteSpace=wrap;html=1;" parent="1" vertex="1">
          <mxGeometry x="540" y="220" width="250" height="310" as="geometry" />
        </mxCell>
        <mxCell id="dlZINARXgmisN3FDSX2H-2" value="user loigin&lt;br&gt;" style="rounded=0;whiteSpace=wrap;html=1;" parent="1" vertex="1">
          <mxGeometry x="180" y="270" width="200" height="30" as="geometry" />
        </mxCell>
        <mxCell id="dlZINARXgmisN3FDSX2H-3" value="user portfolio page" style="rounded=0;whiteSpace=wrap;html=1;" parent="1" vertex="1">
          <mxGeometry x="160" y="300" width="240" height="210" as="geometry" />
        </mxCell>
        <mxCell id="dlZINARXgmisN3FDSX2H-4" value="users login" style="rounded=0;whiteSpace=wrap;html=1;" parent="1" vertex="1">
          <mxGeometry x="250" y="720" width="120" height="60" as="geometry" />
        </mxCell>
        <mxCell id="dlZINARXgmisN3FDSX2H-5" value="user portfolio" style="rounded=0;whiteSpace=wrap;html=1;" parent="1" vertex="1">
          <mxGeometry x="480" y="720" width="120" height="60" as="geometry" />
        </mxCell>
        <mxCell id="dlZINARXgmisN3FDSX2H-26" value="" style="edgeStyle=orthogonalEdgeStyle;rounded=0;orthogonalLoop=1;jettySize=auto;html=1;" parent="1" source="dlZINARXgmisN3FDSX2H-6" target="dlZINARXgmisN3FDSX2H-23" edge="1">
          <mxGeometry relative="1" as="geometry" />
        </mxCell>
        <mxCell id="dlZINARXgmisN3FDSX2H-6" value="user info" style="rounded=0;whiteSpace=wrap;html=1;" parent="1" vertex="1">
          <mxGeometry x="330" y="650" width="80" height="70" as="geometry" />
        </mxCell>
        <mxCell id="dlZINARXgmisN3FDSX2H-7" value="" style="shape=flexArrow;endArrow=classic;startArrow=classic;html=1;rounded=0;width=11;endSize=9.28;entryX=0.886;entryY=-0.022;entryDx=0;entryDy=0;entryPerimeter=0;" parent="1" target="dlZINARXgmisN3FDSX2H-3" edge="1">
          <mxGeometry width="100" height="100" relative="1" as="geometry">
            <mxPoint x="270" y="730" as="sourcePoint" />
            <mxPoint x="210" y="440" as="targetPoint" />
          </mxGeometry>
        </mxCell>
        <mxCell id="dlZINARXgmisN3FDSX2H-8" value="auth" style="rounded=0;whiteSpace=wrap;html=1;" parent="1" vertex="1">
          <mxGeometry x="280" y="780" width="60" height="30" as="geometry" />
        </mxCell>
        <mxCell id="dlZINARXgmisN3FDSX2H-9" value="coins quantity" style="rounded=0;whiteSpace=wrap;html=1;" parent="1" vertex="1">
          <mxGeometry x="530" y="680" width="90" height="40" as="geometry" />
        </mxCell>
        <mxCell id="dlZINARXgmisN3FDSX2H-12" value="" style="shape=flexArrow;endArrow=classic;startArrow=classic;html=1;rounded=0;exitX=0.5;exitY=0;exitDx=0;exitDy=0;" parent="1" source="dlZINARXgmisN3FDSX2H-9" target="dlZINARXgmisN3FDSX2H-3" edge="1">
          <mxGeometry width="100" height="100" relative="1" as="geometry">
            <mxPoint x="600" y="680" as="sourcePoint" />
            <mxPoint x="601" y="560" as="targetPoint" />
          </mxGeometry>
        </mxCell>
        <mxCell id="dlZINARXgmisN3FDSX2H-27" style="edgeStyle=orthogonalEdgeStyle;rounded=0;orthogonalLoop=1;jettySize=auto;html=1;entryX=0.5;entryY=0;entryDx=0;entryDy=0;" parent="1" source="dlZINARXgmisN3FDSX2H-14" target="dlZINARXgmisN3FDSX2H-6" edge="1">
          <mxGeometry relative="1" as="geometry">
            <Array as="points">
              <mxPoint x="420" y="250" />
              <mxPoint x="420" y="460" />
              <mxPoint x="370" y="460" />
            </Array>
          </mxGeometry>
        </mxCell>
        <mxCell id="dlZINARXgmisN3FDSX2H-14" value="new user signup" style="rounded=0;whiteSpace=wrap;html=1;" parent="1" vertex="1">
          <mxGeometry x="220" y="230" width="120" height="40" as="geometry" />
        </mxCell>
        <mxCell id="dlZINARXgmisN3FDSX2H-15" value="user portfolio = &lt;br&gt;coin data api * coins quantity&amp;nbsp;&amp;nbsp;" style="rounded=0;whiteSpace=wrap;html=1;" parent="1" vertex="1">
          <mxGeometry x="160" y="470" width="170" height="40" as="geometry" />
        </mxCell>
        <mxCell id="dlZINARXgmisN3FDSX2H-19" value="user portfolio = coin data api * coins quantity&amp;nbsp;&amp;nbsp;" style="rounded=0;whiteSpace=wrap;html=1;" parent="1" vertex="1">
          <mxGeometry x="720" y="620" width="390" height="40" as="geometry" />
        </mxCell>
        <mxCell id="dlZINARXgmisN3FDSX2H-20" value="" style="ellipse;whiteSpace=wrap;html=1;aspect=fixed;" parent="1" vertex="1">
          <mxGeometry x="690" y="600" width="20" height="20" as="geometry" />
        </mxCell>
        <mxCell id="dlZINARXgmisN3FDSX2H-21" value="" style="ellipse;whiteSpace=wrap;html=1;aspect=fixed;" parent="1" vertex="1">
          <mxGeometry x="665" y="590" width="20" height="20" as="geometry" />
        </mxCell>
        <mxCell id="dlZINARXgmisN3FDSX2H-22" value="" style="ellipse;whiteSpace=wrap;html=1;aspect=fixed;" parent="1" vertex="1">
          <mxGeometry x="640" y="580" width="20" height="20" as="geometry" />
        </mxCell>
        <mxCell id="dlZINARXgmisN3FDSX2H-23" value="user data" style="rounded=0;whiteSpace=wrap;html=1;" parent="1" vertex="1">
          <mxGeometry x="430" y="650" width="80" height="70" as="geometry" />
        </mxCell>
        <mxCell id="dlZINARXgmisN3FDSX2H-24" value="" style="endArrow=classic;startArrow=classic;html=1;rounded=0;exitX=0.667;exitY=0;exitDx=0;exitDy=0;exitPerimeter=0;entryX=0.5;entryY=1;entryDx=0;entryDy=0;" parent="1" source="dlZINARXgmisN3FDSX2H-9" target="bY295j3D-waqxuCJMIXR-3" edge="1">
          <mxGeometry width="50" height="50" relative="1" as="geometry">
            <mxPoint x="600" y="680" as="sourcePoint" />
            <mxPoint x="650" y="630" as="targetPoint" />
            <Array as="points">
              <mxPoint x="640" y="590" />
            </Array>
          </mxGeometry>
        </mxCell>
      </root>
    </mxGraphModel>
  </diagram>
</mxfile>
